<svg width="105" height="85" viewBox="0 0 105 85" fill="none" xmlns="http://www.w3.org/2000/svg">
<g clip-path="url(#clip0_12_749)">
<path d="M94.5234 0C100.051 0 104.5 3.53404 104.5 7.92219V76.0778C104.5 80.4691 100.051 84 94.5234 84H10.4805C4.94922 84 0.5 80.4691 0.5 76.0778V18.9699C0.5 13.7184 5.85938 9.46331 12.4727 9.46331H30.2031C32.6562 9.46331 34.8984 8.36472 36 6.62555L37.5039 4.25508C39.1602 1.64633 42.5234 0 46.2031 0H94.5234Z" fill="#EEF0F6"/>
<path d="M50.5234 0.0546875C53.2695 0.0546875 55.75 1.15625 57.5508 2.94531C59.8242 5.19922 62.9336 16.5 66.1836 16.5H94.5234C100.051 16.5 104.5 20.9609 104.5 26.5V74.0312C104.5 79.5703 100.051 84.0312 94.5234 84.0312H10.4805C4.94922 84.0312 0.5 79.5703 0.5 74.0312V10.0547C0.5 4.51563 4.94922 0.0546875 10.4805 0.0546875H50.5234Z" fill="#AAADB6"/>
<rect x="12.5" y="7" width="34" height="6" rx="3" fill="#EEF0F6"/>
</g>
<defs>
<clipPath id="clip0_12_749">
<rect width="104" height="85" fill="white" transform="matrix(-1 0 0 1 104.5 0)"/>
</clipPath>
</defs>
</svg>
