<svg width="75" height="85" viewBox="0 0 75 85" fill="none" xmlns="http://www.w3.org/2000/svg">
<path d="M68.8573 0.51001H6.14241C2.79212 0.51001 0.0761719 2.87723 0.0761719 5.79734V79.2027C0.0761719 82.1228 2.79212 84.49 6.14241 84.49H68.8573C72.2075 84.49 74.9235 82.1228 74.9235 79.2027V5.79734C74.9235 2.87723 72.2075 0.51001 68.8573 0.51001Z" fill="#AAADB6"/>
<path d="M40.5201 11.1753H9.14304C8.23562 11.1753 7.5 11.9107 7.5 12.818V14.7478C7.5 15.655 8.23562 16.3905 9.14304 16.3905H40.5201C41.4276 16.3905 42.1632 15.655 42.1632 14.7478V12.818C42.1632 11.9107 41.4276 11.1753 40.5201 11.1753Z" fill="#EEF0F6"/>
<path d="M66.6704 29.3311H7.97913C7.71451 29.3311 7.5 29.5455 7.5 29.8101V30.3728C7.5 30.6374 7.71451 30.8518 7.97913 30.8518H66.6704C66.935 30.8518 67.1495 30.6374 67.1495 30.3728V29.8101C67.1495 29.5455 66.935 29.3311 66.6704 29.3311Z" fill="#EEF0F6"/>
<path d="M49.3053 42.8169H7.97913C7.71451 42.8169 7.5 43.0314 7.5 43.2959V43.8587C7.5 44.1232 7.71451 44.3377 7.97913 44.3377H49.3053C49.57 44.3377 49.7845 44.1232 49.7845 43.8587V43.2959C49.7845 43.0314 49.57 42.8169 49.3053 42.8169Z" fill="#EEF0F6"/>
<path d="M66.6704 56.3025H7.97913C7.71451 56.3025 7.5 56.517 7.5 56.7815V57.3443C7.5 57.6088 7.71451 57.8233 7.97913 57.8233H66.6704C66.935 57.8233 67.1495 57.6088 67.1495 57.3443V56.7815C67.1495 56.517 66.935 56.3025 66.6704 56.3025Z" fill="#EEF0F6"/>
<path d="M66.6704 71.4629H7.97913C7.71451 71.4629 7.5 71.6774 7.5 71.9419V72.5047C7.5 72.7692 7.71451 72.9837 7.97913 72.9837H66.6704C66.935 72.9837 67.1495 72.7692 67.1495 72.5047V71.9419C67.1495 71.6774 66.935 71.4629 66.6704 71.4629Z" fill="#EEF0F6"/>
</svg>
