<svg width="75" height="86" viewBox="0 0 75 86" fill="none" xmlns="http://www.w3.org/2000/svg">
<path d="M0 8C0 3.58172 3.58172 0 8 0H55C66.0457 0 75 8.95431 75 20V78C75 82.4183 71.4183 86 67 86H8C3.58172 86 0 82.4183 0 78V8Z" fill="#AAADB6"/>
<path d="M40.5201 10.1753H9.14304C8.23562 10.1753 7.5 10.9107 7.5 11.818V13.7478C7.5 14.655 8.23562 15.3905 9.14304 15.3905H40.5201C41.4276 15.3905 42.1632 14.655 42.1632 13.7478V11.818C42.1632 10.9107 41.4276 10.1753 40.5201 10.1753Z" fill="#EEF0F6"/>
<path d="M66.6704 28.3311H7.97913C7.71451 28.3311 7.5 28.5455 7.5 28.8101V29.3728C7.5 29.6374 7.71451 29.8518 7.97913 29.8518H66.6704C66.935 29.8518 67.1495 29.6374 67.1495 29.3728V28.8101C67.1495 28.5455 66.935 28.3311 66.6704 28.3311Z" fill="#EEF0F6"/>
<path d="M49.3053 41.8169H7.97913C7.71451 41.8169 7.5 42.0314 7.5 42.2959V42.8587C7.5 43.1232 7.71451 43.3377 7.97913 43.3377H49.3053C49.57 43.3377 49.7845 43.1232 49.7845 42.8587V42.2959C49.7845 42.0314 49.57 41.8169 49.3053 41.8169Z" fill="#EEF0F6"/>
<path d="M66.6704 55.3025H7.97913C7.71451 55.3025 7.5 55.517 7.5 55.7815V56.3443C7.5 56.6088 7.71451 56.8233 7.97913 56.8233H66.6704C66.935 56.8233 67.1495 56.6088 67.1495 56.3443V55.7815C67.1495 55.517 66.935 55.3025 66.6704 55.3025Z" fill="#EEF0F6"/>
<path d="M66.6704 70.4629H7.97913C7.71451 70.4629 7.5 70.6774 7.5 70.9419V71.5047C7.5 71.7692 7.71451 71.9837 7.97913 71.9837H66.6704C66.935 71.9837 67.1495 71.7692 67.1495 71.5047V70.9419C67.1495 70.6774 66.935 70.4629 66.6704 70.4629Z" fill="#EEF0F6"/>
<path d="M52.3179 7.61401C55.8642 17.5694 59.6898 20.6172 69.3179 21.614" stroke="#EEF0F6"/>
</svg>
