<svg width="376" height="143" viewBox="0 0 376 143" fill="none" xmlns="http://www.w3.org/2000/svg">
<path d="M139.2 74.1C141.8 74.1 143.8 75.3 145.2 77.7C146.8 80.1 147.6 83.4 147.6 87.6C147.6 95.6 145.7 101.8 141.9 106.2C134.5 115.2 124 123.5 110.4 131.1C97 138.7 82.6 142.5 67.2 142.5C46.2 142.5 29.9 136.8 18.3 125.4C6.7 114 0.9 98.4 0.9 78.6C0.9 64.8 3.8 52 9.6 40.2C15.4 28.2 23.4 18.7 33.6 11.7C44 4.69999 55.7 1.19999 68.7 1.19999C80.3 1.19999 89.6 4.69999 96.6 11.7C103.6 18.5 107.1 27.8 107.1 39.6C107.1 53.4 102.1 65.3 92.1 75.3C82.3 85.1 65.6 92.9 42 98.7C47 107.9 56.5 112.5 70.5 112.5C79.5 112.5 89.7 109.4 101.1 103.2C112.7 96.8 122.7 88.5 131.1 78.3C133.5 75.5 136.2 74.1 139.2 74.1ZM63.6 30.6C56.2 30.6 49.9 34.9 44.7 43.5C39.7 52.1 37.2 62.5 37.2 74.7V75.3C49 72.5 58.3 68.3 65.1 62.7C71.9 57.1 75.3 50.6 75.3 43.2C75.3 39.4 74.2 36.4 72 34.2C70 31.8 67.2 30.6 63.6 30.6ZM273.138 49.8C273.738 49.6 274.738 49.5 276.138 49.5C279.138 49.5 281.438 50.5 283.038 52.5C284.638 54.5 285.438 57.2 285.438 60.6C285.438 66.8 284.238 71.7 281.838 75.3C279.438 78.7 275.838 81.2 271.038 82.8C261.838 85.8 252.038 87.3 241.638 87.3C232.838 87.3 224.538 86.1 216.738 83.7C210.938 93.1 204.538 102.8 197.538 112.8C189.538 124.2 182.638 132 176.838 136.2C171.038 140.4 164.438 142.5 157.038 142.5C148.838 142.5 142.338 139.3 137.538 132.9C132.938 126.5 130.038 116.4 128.838 102.6C126.438 74.6 125.238 50.1 125.238 29.1V18.6C125.438 12 127.238 7.39999 130.638 4.79999C134.038 2.2 139.138 0.899998 145.938 0.899998C151.138 0.899998 154.938 2.1 157.338 4.5C159.938 6.69999 161.238 10.5 161.238 15.9C161.238 38.9 162.638 68.8 165.438 105.6C177.438 87.8 186.438 73.6 192.438 63C189.438 57.2 187.938 50.3 187.938 42.3C187.938 35.5 189.438 28.9 192.438 22.5C195.438 16.1 199.538 10.9 204.738 6.89999C209.938 2.9 215.838 0.899998 222.438 0.899998C228.238 0.899998 232.938 3 236.538 7.2C240.138 11.2 241.938 17.1 241.938 24.9C241.938 33.9 239.538 44.2 234.738 55.8C242.338 55.4 252.438 53.9 265.038 51.3L273.138 49.8ZM366.804 83.1C369.404 83.1 371.404 84.3 372.804 86.7C374.404 89.1 375.204 92.4 375.204 96.6C375.204 103.8 373.504 110 370.104 115.2C364.504 123.8 357.104 130.5 347.904 135.3C338.904 140.1 328.104 142.5 315.504 142.5C296.304 142.5 281.404 136.8 270.804 125.4C260.204 113.8 254.904 98.2 254.904 78.6C254.904 64.8 257.804 52 263.604 40.2C269.404 28.2 277.404 18.7 287.604 11.7C298.004 4.69999 309.704 1.19999 322.704 1.19999C334.304 1.19999 343.604 4.69999 350.604 11.7C357.604 18.5 361.104 27.8 361.104 39.6C361.104 53.4 356.104 65.3 346.104 75.3C336.304 85.1 319.504 92.9 295.704 98.7C300.504 107.9 308.604 112.5 320.004 112.5C328.204 112.5 334.904 110.6 340.104 106.8C345.504 103 351.704 96.6 358.704 87.6C361.104 84.6 363.804 83.1 366.804 83.1ZM317.604 30.6C310.204 30.6 303.904 34.9 298.704 43.5C293.704 52.1 291.204 62.5 291.204 74.7V75.3C303.004 72.5 312.304 68.3 319.104 62.7C325.904 57.1 329.304 50.6 329.304 43.2C329.304 39.4 328.204 36.4 326.004 34.2C324.004 31.8 321.204 30.6 317.604 30.6Z" fill="black"/>
</svg>
