<svg width="101" height="39" viewBox="0 0 101 39" fill="none" xmlns="http://www.w3.org/2000/svg">
<path d="M37.52 20.16C38.2133 20.16 38.7467 20.48 39.12 21.12C39.5467 21.76 39.76 22.64 39.76 23.76C39.76 25.8933 39.2533 27.5467 38.24 28.72C36.2667 31.12 33.4667 33.3333 29.84 35.36C26.2667 37.3867 22.4267 38.4 18.32 38.4C12.72 38.4 8.37333 36.88 5.28 33.84C2.18667 30.8 0.64 26.64 0.64 21.36C0.64 17.68 1.41333 14.2667 2.96 11.12C4.50667 7.92 6.64 5.38666 9.36 3.52C12.1333 1.65333 15.2533 0.719998 18.72 0.719998C21.8133 0.719998 24.2933 1.65333 26.16 3.52C28.0267 5.33333 28.96 7.81333 28.96 10.96C28.96 14.64 27.6267 17.8133 24.96 20.48C22.3467 23.0933 17.8933 25.1733 11.6 26.72C12.9333 29.1733 15.4667 30.4 19.2 30.4C21.6 30.4 24.32 29.5733 27.36 27.92C30.4533 26.2133 33.12 24 35.36 21.28C36 20.5333 36.72 20.16 37.52 20.16ZM17.36 8.56C15.3867 8.56 13.7067 9.70666 12.32 12C10.9867 14.2933 10.32 17.0667 10.32 20.32V20.48C13.4667 19.7333 15.9467 18.6133 17.76 17.12C19.5733 15.6267 20.48 13.8933 20.48 11.92C20.48 10.9067 20.1867 10.1067 19.6 9.52C19.0667 8.88 18.32 8.56 17.36 8.56ZM73.2369 13.68C73.3969 13.6267 73.6635 13.6 74.0369 13.6C74.8369 13.6 75.4502 13.8667 75.8769 14.4C76.3035 14.9333 76.5169 15.6533 76.5169 16.56C76.5169 18.2133 76.1969 19.52 75.5569 20.48C74.9169 21.3867 73.9569 22.0533 72.6769 22.48C70.2235 23.28 67.6102 23.68 64.8369 23.68C62.4902 23.68 60.2769 23.36 58.1969 22.72C56.6502 25.2267 54.9435 27.8133 53.0769 30.48C50.9435 33.52 49.1035 35.6 47.5569 36.72C46.0102 37.84 44.2502 38.4 42.2769 38.4C40.0902 38.4 38.3569 37.5467 37.0769 35.84C35.8502 34.1333 35.0769 31.44 34.7569 27.76C34.1169 20.2933 33.7969 13.76 33.7969 8.16V5.36C33.8502 3.6 34.3302 2.37333 35.2369 1.68C36.1435 0.986666 37.5035 0.639999 39.3169 0.639999C40.7035 0.639999 41.7169 0.959999 42.3569 1.6C43.0502 2.18666 43.3969 3.2 43.3969 4.64C43.3969 10.7733 43.7702 18.7467 44.5169 28.56C47.7169 23.8133 50.1169 20.0267 51.7169 17.2C50.9169 15.6533 50.5169 13.8133 50.5169 11.68C50.5169 9.86667 50.9169 8.10667 51.7169 6.4C52.5169 4.69333 53.6102 3.30667 54.9969 2.24C56.3835 1.17333 57.9569 0.639999 59.7169 0.639999C61.2635 0.639999 62.5169 1.2 63.4769 2.32C64.4369 3.38666 64.9169 4.96 64.9169 7.04C64.9169 9.44 64.2769 12.1867 62.9969 15.28C65.0235 15.1733 67.7169 14.7733 71.0769 14.08L73.2369 13.68ZM98.2144 22.56C98.9077 22.56 99.441 22.88 99.8144 23.52C100.241 24.16 100.454 25.04 100.454 26.16C100.454 28.08 100.001 29.7333 99.0944 31.12C97.601 33.4133 95.6277 35.2 93.1744 36.48C90.7744 37.76 87.8944 38.4 84.5344 38.4C79.4144 38.4 75.441 36.88 72.6144 33.84C69.7877 30.7467 68.3744 26.5867 68.3744 21.36C68.3744 17.68 69.1477 14.2667 70.6944 11.12C72.241 7.92 74.3744 5.38666 77.0944 3.52C79.8677 1.65333 82.9877 0.719998 86.4544 0.719998C89.5477 0.719998 92.0277 1.65333 93.8944 3.52C95.761 5.33333 96.6944 7.81333 96.6944 10.96C96.6944 14.64 95.361 17.8133 92.6944 20.48C90.081 23.0933 85.601 25.1733 79.2544 26.72C80.5344 29.1733 82.6944 30.4 85.7344 30.4C87.921 30.4 89.7077 29.8933 91.0944 28.88C92.5344 27.8667 94.1877 26.16 96.0544 23.76C96.6944 22.96 97.4144 22.56 98.2144 22.56ZM85.0944 8.56C83.121 8.56 81.441 9.70666 80.0544 12C78.721 14.2933 78.0544 17.0667 78.0544 20.32V20.48C81.201 19.7333 83.681 18.6133 85.4944 17.12C87.3077 15.6267 88.2144 13.8933 88.2144 11.92C88.2144 10.9067 87.921 10.1067 87.3344 9.52C86.801 8.88 86.0544 8.56 85.0944 8.56Z" fill="black"/>
</svg>
